<?xml version="1.0" standalone="no"?>
<!DOCTYPE svg PUBLIC "-//W3C//DTD SVG 20010904//EN"
 "http://www.w3.org/TR/2001/REC-SVG-20010904/DTD/svg10.dtd">
<svg version="1.0" xmlns="http://www.w3.org/2000/svg"
 width="300.000000pt" height="286.000000pt" viewBox="0 0 300.000000 286.000000"
 preserveAspectRatio="xMidYMid meet">
<metadata>
Created by potrace 1.10, written by Peter Selinger 2001-2011
</metadata>
<g transform="translate(0.000000,286.000000) scale(0.100000,-0.100000)"
fill="#000000" stroke="none">
<path d="M1210 2597 c-3 -2 -30 -7 -61 -10 -31 -4 -67 -11 -80 -16 -13 -5 -51
-17 -84 -27 -125 -36 -318 -139 -414 -220 -152 -129 -215 -198 -294 -319 -78
-119 -123 -203 -163 -307 -78 -199 -104 -333 -104 -529 l0 -136 762 -2 c419
-1 766 -5 770 -7 4 -3 8 -1 8 3 0 5 -13 16 -29 26 -25 15 -29 24 -36 81 -5 55
-10 66 -28 72 -50 16 -172 143 -154 160 8 9 60 -22 121 -72 40 -32 57 -41 54
-29 -1 10 -12 23 -22 29 -11 6 -27 19 -37 28 -10 9 -28 24 -41 32 -24 15 -55
82 -44 93 5 6 113 -80 128 -101 4 -6 10 -7 14 -4 4 4 -18 31 -48 60 -53 51
-78 85 -78 107 0 21 20 10 71 -39 56 -54 59 -56 59 -37 0 6 -21 30 -46 51 -42
36 -71 82 -60 94 3 2 29 -16 58 -42 32 -28 55 -41 57 -34 2 7 -2 14 -9 16 -34
12 -107 122 -81 122 5 0 29 -22 55 -50 26 -28 46 -43 46 -34 0 8 -14 27 -30
41 -33 27 -65 81 -56 91 4 3 27 -16 52 -42 25 -27 48 -45 51 -42 4 4 -12 25
-34 49 -23 23 -45 55 -49 71 -7 28 -5 28 38 -17 24 -26 51 -47 59 -47 8 1 3 9
-13 21 -27 20 -74 87 -66 94 2 2 23 -14 47 -36 24 -22 45 -38 48 -35 3 3 -13
22 -36 44 -23 21 -41 47 -41 57 0 16 3 16 27 -6 15 -13 33 -31 39 -39 7 -8 16
-11 20 -7 9 9 -63 77 -80 77 -6 0 -21 -3 -33 -6 -19 -5 -21 -10 -12 -25 8 -15
5 -26 -12 -50 -12 -17 -22 -43 -23 -57 -1 -15 -7 -37 -14 -48 -6 -12 -9 -23
-7 -26 3 -2 -5 -24 -17 -49 -19 -41 -30 -74 -45 -139 -3 -14 -10 -31 -16 -38
-15 -19 -19 -52 -9 -66 14 -18 23 -48 12 -41 -6 3 -10 4 -10 1 0 -3 15 -13 33
-22 17 -9 39 -24 48 -33 9 -9 31 -27 48 -41 25 -19 30 -30 26 -48 -4 -15 -2
-21 5 -17 6 4 10 -4 10 -19 0 -14 5 -28 10 -31 35 -21 -11 -25 -277 -23 l-288
3 -3 55 c-7 109 42 306 100 407 46 79 144 193 183 213 6 3 42 24 80 47 68 40
151 71 208 75 20 2 27 7 25 23 -4 57 0 61 32 30 43 -41 46 -27 4 18 -19 20
-30 37 -24 37 7 0 21 -10 32 -22 17 -20 17 -19 -2 10 -12 17 -26 32 -31 32 -6
0 -3 10 5 21 13 20 13 29 -1 69 -13 34 -12 50 2 50 8 0 15 -5 15 -11 0 -5 4
-7 10 -4 5 3 12 -6 16 -20 3 -13 11 -22 16 -19 6 4 7 -2 3 -16 -5 -15 -4 -20
4 -16 14 9 14 -9 0 -37 -12 -22 -12 -22 10 -3 26 24 27 9 1 -24 -11 -14 -20
-29 -20 -35 0 -5 7 1 16 13 8 12 23 22 32 22 11 0 7 -10 -18 -35 -23 -24 -29
-35 -18 -35 8 0 21 7 28 15 14 17 30 20 30 5 0 -6 -16 -20 -35 -31 -19 -12
-32 -25 -29 -31 4 -5 16 -1 28 11 12 12 28 21 35 21 17 0 -12 -41 -41 -57 -14
-8 -17 -12 -8 -12 8 0 23 6 33 14 26 19 129 12 193 -14 77 -30 152 -82 212
-144 28 -31 52 -52 52 -48 0 18 -132 155 -149 156 -3 0 -17 8 -31 17 -31 21
-99 47 -165 62 -55 14 -69 32 -99 132 -19 61 -67 130 -97 139 -32 10 -59 -25
-59 -78 -1 -23 -1 -53 -1 -67 0 -69 -35 -115 -93 -126 -27 -5 -116 -44 -151
-66 -81 -52 -105 -71 -142 -107 -50 -50 -93 -106 -93 -120 0 -6 -4 -11 -9 -11
-5 0 -12 -10 -16 -22 -4 -13 -8 -25 -9 -28 -1 -3 -9 -19 -18 -36 -31 -58 -71
-218 -77 -309 l-6 -90 -75 -2 c-41 -1 -77 -2 -80 -3 -27 -6 -173 -4 -176 2 -3
5 -10 5 -16 2 -15 -10 -382 -4 -391 5 -17 17 -3 55 23 61 24 6 23 7 -8 11
l-32 6 0 -48 c0 -71 -20 -72 -22 -2 -1 45 -2 49 -5 18 -6 -61 -10 -70 -29 -54
-12 10 -15 33 -13 113 4 237 83 495 225 731 46 77 32 39 -57 -151 -10 -23 -19
-44 -19 -48 0 -4 -11 -32 -25 -63 -14 -31 -24 -63 -23 -72 2 -9 11 4 20 29 41
115 52 141 98 235 27 55 78 141 114 190 56 79 192 222 281 294 28 23 182 121
191 121 2 0 36 15 76 34 40 18 96 41 123 49 80 26 237 58 259 54 18 -4 17 -5
-4 -6 -49 -3 -51 -8 -39 -131 6 -63 12 -117 15 -119 11 -12 14 11 5 50 -6 24
-11 69 -11 100 0 48 3 57 19 62 11 2 24 0 30 -6 8 -8 11 -4 12 14 1 13 1 27 0
32 0 4 3 7 7 7 5 0 13 -26 19 -57 9 -50 10 -53 12 -22 1 40 18 53 56 43 22 -5
24 -12 28 -72 3 -60 3 -58 5 23 l2 90 -123 3 c-67 2 -124 2 -127 -1z"/>
<path d="M1473 2575 c4 -9 8 -35 8 -58 l2 -42 6 35 c5 29 11 36 34 38 18 2 29
-2 33 -12 9 -25 24 -19 24 9 0 34 20 32 21 -2 0 -16 3 -22 6 -15 8 20 51 14
67 -10 11 -15 16 -18 16 -8 0 8 3 25 6 36 8 29 -10 34 -130 41 -90 5 -98 4
-93 -12z"/>
<path d="M1147 2547 c-47 -10 -48 -11 -41 -41 11 -53 23 -65 24 -25 0 29 4 38
23 43 58 15 65 5 86 -134 l9 -65 -4 70 c-3 39 -7 91 -10 118 -6 52 -5 52 -87
34z"/>
<path d="M1710 2523 c0 -31 2 -34 13 -21 16 22 62 13 75 -15 l11 -22 0 22 c1
12 6 25 13 29 8 5 9 -3 5 -30 -6 -37 -6 -37 12 -15 17 21 21 21 49 10 51 -21
54 -31 26 -100 -14 -35 -24 -65 -22 -67 3 -2 19 32 38 76 18 44 37 83 43 87 6
4 8 -1 4 -13 -3 -10 -10 -34 -15 -51 -12 -39 -6 -44 8 -8 11 28 26 31 65 13
21 -10 26 -17 23 -39 -3 -16 -1 -26 4 -23 4 3 8 11 8 17 0 7 8 21 16 32 16 20
16 19 11 -5 -2 -14 -8 -34 -11 -45 -7 -18 -6 -18 4 -2 6 9 19 17 28 17 22 0
82 -37 82 -50 0 -5 -21 -41 -46 -80 -25 -39 -44 -73 -41 -76 2 -2 17 16 32 41
16 25 33 45 37 45 4 0 8 6 8 13 1 16 59 86 60 70 0 -16 -63 -114 -84 -132 -9
-7 -16 -17 -16 -22 0 -21 18 -5 59 51 39 54 71 77 71 50 0 -5 5 -10 10 -10 20
0 70 -54 70 -74 0 -12 -13 -36 -29 -53 -15 -17 -31 -39 -35 -50 -5 -15 -3 -14
11 3 75 90 96 114 100 110 7 -7 -17 -47 -54 -90 -18 -22 -33 -44 -33 -49 0 -5
10 3 22 19 28 36 67 74 76 74 5 0 27 -20 51 -44 51 -52 53 -47 -59 -163 -40
-40 -69 -73 -65 -73 3 0 49 41 101 90 51 50 99 90 104 90 23 0 6 23 -72 99
-106 102 -121 115 -193 164 -71 49 -139 87 -215 123 -30 14 -73 34 -95 44 -42
21 -218 70 -247 70 -14 0 -18 -8 -18 -37z"/>
<path d="M1030 2511 c-27 -10 -44 -23 -43 -32 3 -32 68 -229 71 -219 2 6 -8
49 -22 94 -30 97 -32 122 -10 130 31 12 44 6 64 -31 15 -26 19 -30 15 -13 -4
14 -9 37 -12 53 -3 15 -8 29 -12 31 -3 2 -26 -4 -51 -13z"/>
<path d="M906 2455 c-27 -14 -55 -25 -61 -25 -31 0 -33 -25 -7 -69 15 -27 28
-39 30 -31 3 8 0 16 -6 18 -7 2 -12 16 -12 31 0 22 8 31 45 49 57 27 64 21
100 -93 15 -47 30 -84 32 -81 3 3 -2 27 -11 53 -32 97 -46 144 -46 158 0 20
-7 19 -64 -10z"/>
<path d="M759 2376 c-20 -11 -47 -30 -61 -41 l-26 -20 34 -43 c19 -24 34 -40
34 -35 0 4 -7 17 -15 27 -28 38 -11 74 44 91 19 6 28 2 42 -16 23 -30 24 -14
1 27 l-17 31 -36 -21z"/>
<path d="M593 2250 l-52 -50 57 -64 c31 -36 59 -63 61 -60 3 3 1 8 -5 12 -17
12 -74 90 -74 101 0 18 42 71 52 65 4 -3 8 0 8 5 0 20 21 11 51 -21 16 -18 27
-39 24 -46 -3 -7 -1 -10 4 -7 5 3 16 -3 23 -13 7 -10 19 -22 26 -26 7 -4 -11
23 -39 61 -28 37 -53 74 -56 81 -9 21 -27 13 -80 -38z"/>
<path d="M1738 2235 c-44 -41 -64 -177 -30 -208 23 -21 56 -22 71 -3 10 12 9
13 -7 9 -29 -7 -62 14 -62 41 0 12 6 44 14 69 8 26 10 47 5 47 -5 0 -9 5 -9
10 0 6 9 10 20 10 10 0 24 9 30 20 13 25 35 27 25 3 -13 -32 -10 -45 11 -53
20 -8 21 -6 14 25 -14 63 -37 72 -82 30z"/>
<path d="M1736 2134 c-9 -37 -15 -68 -13 -70 2 -3 12 25 22 61 9 36 15 68 13
71 -3 3 -13 -25 -22 -62z"/>
<path d="M503 2165 c-11 -11 -35 -39 -53 -62 l-33 -43 25 -22 c54 -49 68 -61
68 -56 0 3 -13 19 -30 36 -16 18 -30 38 -30 47 0 8 16 30 35 50 42 41 54 38
119 -29 46 -49 19 -10 -40 54 l-40 45 -21 -20z"/>
<path d="M1211 2159 c-65 -53 -44 -162 38 -190 28 -10 37 -8 71 15 27 18 40
34 40 49 0 21 -1 21 -25 -5 -63 -69 -135 -38 -135 57 0 61 76 98 115 55 24
-27 13 -48 -30 -56 -19 -3 -38 -11 -41 -16 -7 -10 24 -48 39 -48 12 0 62 43
63 56 1 5 5 19 8 31 5 17 0 29 -18 48 -30 30 -90 32 -125 4z"/>
<path d="M1765 2133 c-3 -21 -9 -49 -12 -61 -5 -19 -2 -23 12 -20 12 2 20 14
22 32 2 16 9 38 14 48 11 21 4 38 -15 38 -8 0 -17 -16 -21 -37z"/>
<path d="M1236 2124 c-10 -26 -7 -34 13 -34 22 0 45 25 36 40 -10 16 -42 12
-49 -6z"/>
<path d="M2465 1958 c-74 -75 -85 -89 -42 -53 32 27 64 56 70 64 7 9 24 22 39
30 26 13 29 12 62 -25 20 -21 36 -42 36 -47 0 -4 -11 -17 -25 -29 -14 -12 -25
-26 -25 -31 0 -4 7 -1 16 8 9 8 30 22 47 31 l32 16 -37 -37 c-39 -37 -54 -62
-19 -31 24 21 50 18 65 -9 6 -10 17 -25 24 -33 6 -7 12 -17 12 -22 0 -17 -12
-40 -22 -40 -9 0 -69 -41 -93 -63 -15 -14 30 10 71 38 19 13 48 26 64 30 17 4
30 12 30 18 0 24 -182 287 -198 287 -4 0 -52 -46 -107 -102z"/>
<path d="M390 2030 c0 -5 -16 -32 -35 -59 -37 -51 -43 -71 -22 -71 7 0 23 -9
35 -20 12 -12 22 -16 22 -11 0 6 -9 15 -20 21 -28 15 -24 50 10 88 16 17 32
32 35 32 3 0 29 -16 57 -36 34 -23 40 -25 18 -7 -19 15 -44 38 -56 51 -22 23
-44 29 -44 12z"/>
<path d="M819 1979 c-17 -17 -20 -29 -15 -61 6 -34 4 -39 -9 -34 -8 3 -21 8
-28 11 -18 8 -67 -32 -67 -54 0 -19 30 -51 48 -51 6 0 21 -22 34 -49 21 -46
38 -58 38 -26 0 18 -44 84 -67 100 -9 7 -23 11 -30 8 -19 -7 -15 8 8 36 18 22
21 22 37 8 17 -15 92 -40 100 -33 6 7 -25 71 -44 90 -18 18 -17 19 11 42 l30
24 3 -25 c4 -27 74 -85 104 -85 26 0 22 -12 -12 -45 -27 -26 -30 -27 -30 -8 0
11 -9 28 -20 38 -11 10 -18 21 -15 25 5 8 -50 60 -62 60 -5 -1 6 -12 22 -25
17 -14 25 -25 18 -25 -7 0 -3 -21 12 -61 21 -53 22 -60 7 -57 -9 3 -16 9 -15
16 2 6 -4 9 -12 6 -8 -4 -27 -3 -42 1 -21 5 -24 8 -12 16 7 5 10 9 4 9 -5 0
-15 -4 -22 -8 -20 -13 33 -72 65 -72 l26 0 -34 -35 c-22 -23 -29 -35 -19 -35
20 0 60 42 63 66 1 11 23 33 49 49 26 17 51 42 56 57 9 24 7 30 -16 45 -14 10
-47 37 -73 61 -26 23 -52 42 -59 42 -6 0 -20 -9 -32 -21z"/>
<path d="M2184 1985 c-42 -18 -65 -48 -71 -94 -5 -35 -2 -44 25 -71 20 -19 40
-30 59 -30 27 1 27 1 9 15 -11 8 -26 15 -33 15 -8 0 -21 16 -29 36 -14 32 -13
38 3 66 10 17 30 35 45 40 57 19 119 -41 98 -96 -8 -23 -39 -37 -40 -18 -1 4
-11 20 -25 36 -20 25 -26 28 -39 17 -30 -25 -20 -57 24 -75 52 -21 60 -20 93
9 26 23 27 27 17 65 -7 25 -23 50 -44 67 -41 32 -53 35 -92 18z"/>
<path d="M530 1965 c7 -9 27 -25 44 -37 29 -19 28 -18 -6 16 -37 36 -62 50
-38 21z"/>
<path d="M2221 1931 c-11 -7 -9 -13 7 -29 18 -18 22 -19 33 -6 9 11 9 17 -1
29 -14 17 -20 18 -39 6z"/>
<path d="M273 1828 c-31 -63 -33 -78 -9 -78 8 0 16 17 19 41 3 23 15 51 26 63
19 20 19 36 1 36 -3 0 -20 -28 -37 -62z"/>
<path d="M1740 1818 c30 -12 57 -24 60 -28 3 -4 23 -17 45 -28 68 -35 163
-146 208 -244 38 -85 60 -200 60 -318 0 -63 -3 -124 -6 -135 -7 -19 -14 -20
-271 -17 l-264 3 -8 66 c-6 61 -5 68 14 82 131 97 141 113 122 188 -7 26 -12
63 -11 81 1 34 -14 44 -23 14 -9 -28 -56 -66 -106 -87 -51 -21 -66 -32 -58
-41 7 -6 110 40 151 68 21 15 27 16 27 5 0 -29 -46 -71 -112 -101 -49 -22 -65
-35 -59 -44 6 -10 29 0 95 39 47 28 89 49 92 46 3 -3 -6 -24 -20 -46 -25 -40
-90 -90 -131 -102 -16 -4 -19 -12 -17 -40 4 -37 28 -138 35 -146 3 -2 327 -7
721 -10 522 -4 716 -2 716 6 0 6 -4 11 -9 11 -4 0 -13 45 -20 101 -24 218 -69
375 -151 539 l-41 81 -37 -22 c-62 -37 -69 -49 -18 -29 53 20 82 -65 30 -89
-15 -6 -24 -14 -21 -18 4 -3 22 4 42 16 20 11 41 21 46 21 18 0 -1 -20 -39
-40 l-37 -19 37 5 c33 4 38 2 51 -23 8 -15 17 -41 21 -56 6 -24 3 -29 -26 -42
l-33 -14 50 5 c51 5 52 5 -17 -26 -20 -9 -19 -9 9 -4 34 6 40 0 53 -47 8 -28
6 -32 -23 -45 -32 -14 -32 -14 18 -8 46 5 48 5 30 -9 -11 -8 -29 -17 -40 -20
-16 -4 -15 -5 6 -6 28 -1 42 -21 33 -44 -3 -8 -35 -19 -75 -27 -89 -15 -84
-24 7 -10 89 13 111 13 98 0 -5 -5 -45 -15 -89 -21 -100 -13 -113 -24 -22 -16
37 3 74 4 82 1 19 -8 29 -63 17 -94 -10 -25 -10 -25 -133 -23 -68 2 -224 3
-345 3 l-222 -1 3 78 c3 70 -2 120 -19 220 -6 36 -35 97 -42 90 -3 -3 4 -32
16 -66 23 -70 35 -215 23 -281 -8 -43 -10 -45 -43 -45 l-35 0 4 115 c5 168
-24 298 -91 413 -15 26 -28 52 -28 57 0 18 -66 84 -118 117 -56 36 -171 83
-200 82 -9 0 8 -9 38 -21z"/>
<path d="M1607 1804 c-47 -31 -40 -46 8 -19 20 10 38 16 41 12 11 -11 -8 -29
-52 -49 -63 -27 -55 -41 9 -15 61 25 67 31 58 65 -9 34 -19 35 -64 6z"/>
<path d="M1280 1758 c-19 -12 -37 -25 -40 -29 -3 -3 -12 -9 -20 -12 -10 -4 -8
-6 6 -6 12 -1 25 6 28 15 4 9 9 14 12 11 4 -3 13 1 22 9 12 13 16 13 23 2 5
-7 9 -10 9 -6 0 3 3 13 6 22 8 22 -4 20 -46 -6z"/>
<path d="M211 1684 c-27 -71 -27 -84 2 -84 12 0 17 4 12 8 -14 9 -13 28 4 75
13 37 15 39 50 33 l36 -6 -34 15 c-18 8 -37 15 -41 15 -4 0 -17 -25 -29 -56z"/>
<path d="M1636 1715 c-15 -13 -41 -27 -57 -30 -16 -4 -29 -11 -29 -15 0 -5 21
-3 48 5 56 18 52 17 52 5 0 -13 -54 -40 -79 -40 -20 0 -37 -17 -27 -27 3 -3
23 2 46 11 49 20 60 20 60 2 0 -15 -68 -46 -100 -46 -11 0 -20 -4 -20 -10 0
-13 7 -13 55 5 60 21 72 19 46 -9 -12 -13 -42 -29 -67 -36 -24 -7 -44 -17 -44
-21 0 -11 -5 -13 72 14 48 18 65 20 61 10 -8 -20 -85 -70 -113 -75 -14 -1 -26
-10 -28 -19 -2 -13 15 -8 78 23 l81 39 -3 55 c-2 30 -1 54 2 54 6 0 3 120 -3
126 -1 2 -15 -8 -31 -21z"/>
<path d="M1127 1643 c-33 -35 -87 -105 -87 -114 0 -4 6 -6 14 -3 8 3 12 12 9
20 -3 7 2 17 11 20 9 4 30 26 47 50 32 46 34 56 6 27z"/>
<path d="M2100 1595 c0 -9 70 -140 70 -131 0 11 -60 136 -66 136 -2 0 -4 -2
-4 -5z"/>
<path d="M157 1528 c-9 -34 -15 -63 -14 -65 2 -1 21 -4 42 -6 22 -2 30 -2 17
0 -34 7 -42 32 -25 76 15 37 18 38 52 33 39 -6 18 6 -30 17 -25 7 -27 4 -42
-55z"/>
<path d="M557 1572 c-22 -25 -21 -45 3 -67 11 -10 20 -26 20 -35 0 -9 5 -31
11 -48 9 -28 24 -37 76 -48 23 -4 51 27 67 77 21 63 18 66 -74 104 -36 15 -70
29 -76 31 -5 3 -18 -4 -27 -14z m78 -37 c28 -13 61 -25 74 -25 18 0 22 -4 16
-17 -4 -10 -11 -33 -17 -50 -12 -44 -42 -59 -74 -39 -29 20 -40 57 -24 85 10
19 8 22 -20 27 -20 5 -30 12 -30 25 0 25 15 24 75 -6z"/>
<path d="M638 1499 c-37 -21 -3 -81 38 -65 21 8 17 44 -6 51 -11 4 -18 11 -15
16 8 11 5 11 -17 -2z"/>
<path d="M2526 1561 c-3 -4 -27 -14 -53 -21 -27 -7 -54 -17 -60 -23 -19 -14
-15 -58 7 -87 17 -23 21 -24 51 -13 29 11 35 10 54 -7 48 -45 104 -4 91 66
-10 49 -26 82 -44 89 -11 4 -13 0 -8 -17 4 -13 8 -30 9 -38 1 -8 8 -20 16 -26
28 -22 -10 -87 -40 -68 -16 10 -10 37 7 30 8 -3 12 -2 9 4 -3 6 -1 10 4 10 19
0 12 18 -9 25 -25 8 -91 -23 -98 -47 -7 -29 -16 -21 -34 28 -14 39 -14 45 -1
40 23 -9 111 26 116 46 5 18 -7 25 -17 9z"/>
<path d="M2498 1507 c-32 -11 -58 -24 -58 -28 0 -8 101 28 115 42 11 11 13 11
-57 -14z"/>
<path d="M111 1468 c-7 -32 -10 -68 -8 -80 3 -18 5 -17 6 7 0 17 6 47 12 68 6
21 8 44 6 50 -2 7 -10 -14 -16 -45z"/>
<path d="M126 1386 c-3 -30 -9 -61 -12 -70 -5 -13 1 -16 27 -15 19 1 26 3 17
6 -13 3 -18 15 -18 43 0 52 8 70 32 70 10 0 16 5 13 10 -3 6 -17 10 -29 10
-21 0 -24 -6 -30 -54z"/>
<path d="M110 1225 l0 -55 58 1 c54 1 55 2 17 8 -57 10 -64 16 -56 53 5 26 13
34 36 39 27 6 25 7 -12 8 l-43 1 0 -55z"/>
<path d="M2189 1223 c-2 -16 -1 -46 2 -68 5 -33 6 -29 8 28 1 69 -4 88 -10 40z"/>
<path d="M11 938 c1 -87 6 -118 17 -118 4 0 6 33 6 73 -2 116 -3 127 -14 127
-5 0 -9 -35 -9 -82z"/>
<path d="M12 410 l-2 -400 113 0 c114 0 164 11 112 24 -14 4 -31 4 -37 0 -7
-4 -8 -3 -4 4 9 15 1 15 -24 0 -14 -9 -23 -9 -30 -2 -7 7 -26 8 -53 3 -45 -8
-61 2 -51 34 4 14 6 171 2 222 0 6 1 15 3 20 1 6 -1 48 -5 93 -6 58 -5 87 3
95 12 12 15 31 4 24 -5 -3 -8 58 -8 136 -1 84 -5 142 -11 144 -6 2 -10 -137
-12 -397z"/>
<path d="M1020 56 c0 -20 -18 -24 -64 -15 -22 4 -49 5 -61 2 -11 -2 -27 -6
-35 -7 -8 -2 -21 2 -29 8 -11 8 -15 8 -18 0 -3 -8 -15 -9 -36 -5 -32 7 -86 6
-165 -2 -27 -3 -40 -1 -36 5 4 6 -1 6 -13 -1 -14 -7 -23 -7 -31 1 -9 9 -12 9
-12 0 0 -14 -36 -12 -59 3 -10 5 -16 4 -19 -3 -5 -15 -84 -16 -99 -1 -7 7 -13
7 -17 0 -4 -5 -13 -8 -21 -4 -9 3 -15 -1 -15 -10 0 -14 139 -16 1355 -14 1113
2 1355 4 1355 15 0 9 -7 11 -20 7 -11 -3 -20 -3 -20 2 0 4 -45 8 -100 8 -55 0
-100 -3 -100 -7 0 -8 -21 -5 -37 5 -6 4 -14 3 -17 -2 -4 -5 -19 -6 -34 -2 -28
7 -182 5 -190 -3 -2 -3 -11 2 -20 10 -10 10 -17 12 -22 5 -7 -12 -240 -9 -259
3 -6 4 -11 2 -11 -4 0 -13 -32 -9 -42 5 -5 6 -8 6 -8 -1 0 -7 -29 -11 -85 -11
-59 0 -83 3 -78 11 4 6 -1 5 -10 -3 -14 -11 -20 -11 -34 0 -9 8 -14 9 -10 3 4
-7 -9 -11 -38 -12 -29 -2 -45 2 -45 9 0 7 -9 4 -21 -7 -14 -12 -22 -15 -27 -7
-4 6 -27 10 -52 9 -24 -2 -39 -1 -32 2 7 2 9 8 6 13 -4 6 -11 6 -19 -1 -8 -6
-32 -13 -53 -15 -22 -1 -45 -6 -52 -10 -8 -5 -18 -1 -26 9 -8 11 -14 13 -19 6
-3 -5 -10 -8 -15 -5 -5 3 -18 1 -29 -5 -14 -7 -22 -7 -26 1 -4 6 -14 8 -22 5
-8 -3 -11 -2 -8 3 3 5 1 13 -5 16 -6 4 -9 1 -8 -6 2 -9 -14 -13 -54 -14 -35
-1 -58 3 -58 9 0 7 -3 6 -8 -1 -8 -12 -29 -13 -49 0 -6 4 -14 3 -18 -2 -3 -5
-48 -9 -99 -8 -72 1 -93 4 -89 14 3 7 0 13 -6 13 -6 0 -11 -6 -11 -14z"/>
</g>
</svg>
